<?xml version="1.0" encoding="UTF-8" standalone="no"?>
<svg
   xmlns="http://www.w3.org/2000/svg"
   xmlns:oryx="http://www.b3mn.org/oryx"
   width="40"
   height="40"
   version="1.0">
  <defs></defs>
  <oryx:magnets>
  	<oryx:magnet oryx:cx="16" oryx:cy="16" oryx:default="yes" />
  </oryx:magnets>
  <oryx:docker oryx:cx="16" oryx:cy="16" />
  <g pointer-events="fill">
  
    <defs>
		<radialGradient id="background" cx="10%" cy="10%" r="100%" fx="10%" fy="10%">
			<stop offset="0%" stop-color="#ffffff" stop-opacity="1"/>
			<stop id="fill_el" offset="100%" stop-color="#ffffff" stop-opacity="1"/>
		</radialGradient>
	</defs>
	
    <circle id="bg_frame" cx="16" cy="16" r="15" stroke="black" fill="url(#background) white" stroke-width="1"/>
    <circle id="frame" cx="16" cy="16" r="12" stroke="black" fill="none" stroke-width="1"/>
	<text font-size="11" 
		id="text_name" 
		x="16" y="33" 
		oryx:align="top center" 
		stroke="black"
	></text>
	<g id="userTask" transform="scale(0.7,0.7) translate(10,8)">
		<path id="frame15" oryx:anchors="top left" style="opacity:1;fill:#F4F6F7" stroke="black"
		 d="M0.585,24.167h24.083v-7.833c0,0-2.333-3.917-7.083-5.167h-9.25
			c-4.417,1.333-7.833,5.75-7.833,5.75L0.585,24.167z"/>
		<path id="frame16" oryx:anchors="top left" style="opacity:1;fill:none" d="M 6 20 L 6 24" stroke="black"/>
		<path id="frame17" oryx:anchors="top left" style="opacity:1;fill:none" d="M 20 20 L 20 24" stroke="black"/>
		<circle id="frame18" oryx:anchors="top left" fill="black" cx="13.002" cy="5.916" r="5.417" stroke="black"/>
		<path id="frame19" oryx:anchors="top left" style="opacity:1;fill:#F0EFF0;" stroke="black"
		d="M8.043,7.083c0,0,2.814-2.426,5.376-1.807s4.624-0.693,4.624-0.693
			c0.25,1.688,0.042,3.75-1.458,5.584c0,0,1.083,0.75,1.083,1.5s0.125,1.875-1,3s-5.5,1.25-6.75,0S8.668,12.834,8.668,12
			s0.583-1.25,1.25-1.917C8.835,9.5,7.419,7.708,8.043,7.083z"/>
	</g>
  </g>
</svg>
