<?xml version="1.0" encoding="UTF-8" standalone="no"?>
<svg xmlns="http://www.w3.org/2000/svg" xmlns:svg="http://www.w3.org/2000/svg" xmlns:oryx="http://www.b3mn.org/oryx" xmlns:xlink="http://www.w3.org/1999/xlink" width="102"
	height="82" version="1.0">
	<defs></defs>
	<oryx:magnets>
		<oryx:magnet oryx:cx="1" oryx:cy="20" oryx:anchors="left" />
		<oryx:magnet oryx:cx="1" oryx:cy="40" oryx:anchors="left" />
		<oryx:magnet oryx:cx="1" oryx:cy="60" oryx:anchors="left" />

		<oryx:magnet oryx:cx="25" oryx:cy="79" oryx:anchors="bottom" />
		<oryx:magnet oryx:cx="50" oryx:cy="79" oryx:anchors="bottom" />
		<oryx:magnet oryx:cx="75" oryx:cy="79" oryx:anchors="bottom" />

		<oryx:magnet oryx:cx="99" oryx:cy="20" oryx:anchors="right" />
		<oryx:magnet oryx:cx="99" oryx:cy="40" oryx:anchors="right" />
		<oryx:magnet oryx:cx="99" oryx:cy="60" oryx:anchors="right" />

		<oryx:magnet oryx:cx="25" oryx:cy="1" oryx:anchors="top" />
		<oryx:magnet oryx:cx="50" oryx:cy="1" oryx:anchors="top" />
		<oryx:magnet oryx:cx="75" oryx:cy="1" oryx:anchors="top" />

		<oryx:magnet oryx:cx="50" oryx:cy="40" oryx:default="yes" />
	</oryx:magnets>
	<g pointer-events="fill" oryx:minimumSize="80 40">
		<defs>
			<radialGradient id="background" cx="10%" cy="10%" r="100%" fx="10%" fy="10%">
				<stop offset="0%" stop-color="#ffffff" stop-opacity="1" />
				<stop id="fill_el" offset="100%" stop-color="#ffffcc" stop-opacity="1" />
			</radialGradient>
			<radialGradient id="borderbackground" cx="10%" cy="10%" r="100%" fx="10%" fy="10%">
				<stop offset="0%" stop-color="#ffffff" stop-opacity="1" />
				<stop id="fill_border" offset="100%" stop-color="#ffffff" stop-opacity="1" />
			</radialGradient>
		</defs>

		<rect id="text_frame" oryx:anchors="bottom top right left" x="1" y="1" width="94" height="79" rx="10" ry="10" stroke="none" stroke-width="0" fill="none" />
		<rect id="bg_frame" oryx:resize="vertical horizontal" x="0" y="0" width="100" height="80" rx="10" ry="10" stroke="black" stroke-width="1" fill="url(#background) #ffffcc" stroke-dasharray="3,4"/>
		<g id="nonBlocking" transform="scale(0.7,0.7) translate(8,8)">
			<path oryx:anchors="top left" id="frame" style="opacity:1;fill:none;fill-opacity:1;stroke-width:1"
				d="M0.5,3.751l4.083-3.25c0,0,11.166,0.083,12.083,0.083s-2.417,2.917-1.5,2.917
				s11.667,0,12.584,0c1.166,1.708-0.168,3.167-0.834,3.667s0.875,1.917-1,4.417c-0.75,0.25,0.75,1.875-1.333,3.333
				c-1.167,0.583,0.583,1.542-1.25,2.833c-1.167,0-20.833,0.083-20.833,0.083l-2-1.333V3.751z"
				stroke="black" />
			<path id="frame2" oryx:anchors="top left" style="opacity:1;fill:none;stroke-width:2" d="M 13.5 7 L 27 7" stroke="black" />
			<path id="frame3" oryx:anchors="top left" style="opacity:1;fill:none;stroke-width:2" d="M 13.5 11 L 26 11" stroke="black" />
			<path id="frame4" oryx:anchors="top left" style="opacity:1;fill:none;stroke-width:1.5" d="M 14 14.5 L 25 14.5" stroke="black" />
			<path id="frame5" oryx:anchors="top left" style="opacity:1;fill:none;stroke-width:1.5" d="M 8.2 3.1 L 15 3.1" stroke="black" />
		</g>
		<g id="blocking" transform="scale(0.7,0.7) translate(8,8)">
			<path id="frame15" oryx:anchors="top left" style="opacity:1;fill:#F4F6F7" stroke="black"
				d="M0.585,24.167h24.083v-7.833c0,0-2.333-3.917-7.083-5.167h-9.25
			c-4.417,1.333-7.833,5.75-7.833,5.75L0.585,24.167z" />
			<path id="frame16" oryx:anchors="top left" style="opacity:1;fill:none" d="M 6 20 L 6 24" stroke="black" />
			<path id="frame17" oryx:anchors="top left" style="opacity:1;fill:none" d="M 20 20 L 20 24" stroke="black" />
			<circle id="frame18" oryx:anchors="top left" fill="black" cx="13.002" cy="5.916" r="5.417" stroke="black" />
			<path id="frame19" oryx:anchors="top left" style="opacity:1;fill:#F0EFF0;" stroke="black"
				d="M8.043,7.083c0,0,2.814-2.426,5.376-1.807s4.624-0.693,4.624-0.693
			c0.25,1.688,0.042,3.75-1.458,5.584c0,0,1.083,0.75,1.083,1.5s0.125,1.875-1,3s-5.5,1.25-6.75,0S8.668,12.834,8.668,12
			s0.583-1.25,1.25-1.917C8.835,9.5,7.419,7.708,8.043,7.083z" />
		</g>
		<text font-size="12" id="text_name" x="50" y="40" oryx:align="middle center" oryx:fittoelem="text_frame" stroke="black">
		</text>
		<g transform="translate(0,146)">
			<path id="manual_activation_path" oryx:anchors="bottom" style="opacity:1;fill:#F0EFF0;" stroke="black" d="M 0,1 L 9,6 L 0,11 z" display="none" />
			<text id="required_text" oryx:anchors="bottom" font-size="12"   x="1" y="22" stroke="black" display="none" >!
			</text>
			<text id="repetition_text" oryx:anchors="bottom" font-size="12"  x="1" y="22" stroke="black" display="none">#
			</text>
		</g>
		<g transform="translate(30,-12)">
			<rect id="planning_table_button" oryx:anchors="top left" x="0" y="0" width="36" height="24" stroke="black" stroke-width="1" fill="none" rx="2" ry="2" style="opacity:1;" />
			<path id="planning_table_vertical1" oryx:anchors="top left" style="opacity:1;fill:#F0EFF0;" stroke="black" d="M 12,1 L 12,22 z" />
			<path id="planning_table_vertical2" oryx:anchors="top left" style="opacity:1;fill:#F0EFF0;" stroke="black" d="M 24,1 L 24,22 z" />
			<path id="planning_table_horizontal" oryx:anchors="top left" style="opacity:1;fill:#F0EFF0;" stroke="black" d="M 0,12 L 36,12 z" />
			<path id="planning_table_vertical" oryx:anchors="top left" style="opacity:1;fill:#F0EFF0;" stroke="black" d="M 18,14 L 18, 22 z" display="none" />
			<path id="planning_table_horizontal" oryx:anchors="top left" style="opacity:1;fill:#F0EFF0;" stroke="black" d="M 14,18 L 22,18 z" />
		</g>
	</g>
</svg>